# xmcd
#
# Track frame offsets:
#	150
#	13204
#	25787
#	44420
#	57060
#	70180
#	85142
#	96659
#	108526
#	119436
#	130398
#	151075
#	163442
#	174534
#	186461
#	197005
#
# Disc length: 2742 seconds
#
# Revision: 2
# Processed by: cddbd v1.5.1PL0 Copyright (c) Steve Scherf et al.
# Submitted via: audiograbber 1.83.01
#
DISCID=e50ab410
DTITLE=Various Artist - Lonesom Cowboys Vol. 2 - CD2
DYEAR=1900
DGENRE=Country
TTITLE0=Don Williams - Wher Do I Go From Here
TTITLE1=Gene Autrey - Backj In The Saddle Again
TTITLE2=Bobby Bare - Tequilla Sheila
TTITLE3=Johnny Cash - Ring Of Fire
TTITLE4=Freddie Fender - That Girl Who Waits On Tables
TTITLE5=Jerry Lee Lewis - Cold, Cold Heart
TTITLE6=Jim Reeves - I Love You More
TTITLE7=Kenny Rogers - A Poem For My Little Lady
TTITLE8=Hank Thompson - Humpty Dumpty Heart
TTITLE9=Faron Young - Cryin' Time
TTITLE10=Red Sovine - Daddy
TTITLE11=Hank Williams - Lovesick Blues
TTITLE12=Roy Drosky - I Can't Help It
TTITLE13=Buddy Owens - How Can I Tell My Dreams Not To Sleep With You
TTITLE14=Johnny Paycheck - Jukebox Charlie
TTITLE15=Waylon Jennings - Love's Gonna Live Here
EXTD=
EXTT0=
EXTT1=
EXTT2=
EXTT3=
EXTT4=
EXTT5=
EXTT6=
EXTT7=
EXTT8=
EXTT9=
EXTT10=
EXTT11=
EXTT12=
EXTT13=
EXTT14=
EXTT15=
PLAYORDER=
